<?xml version="1.0" standalone="no"?>
<!DOCTYPE svg PUBLIC "-//W3C//DTD SVG 20010904//EN"
 "http://www.w3.org/TR/2001/REC-SVG-20010904/DTD/svg10.dtd">
<svg version="1.0" xmlns="http://www.w3.org/2000/svg"
 width="250.000000pt" height="97.000000pt" viewBox="0 0 250.000000 97.000000"
 preserveAspectRatio="xMidYMid meet">
<metadata>
Created by potrace 1.10, written by Peter Selinger 2001-2011
</metadata>
<g transform="translate(0.000000,97.000000) scale(0.050000,-0.050000)"
fill="#ffffff" stroke="none">
<path d="M556 1750 c-601 -165 -717 -1008 -156 -1128 147 -32 753 -29 774 3
14 23 104 528 106 595 0 25 -28 29 -158 24 l-157 -7 -14 -140 c-20 -206 -12
-197 -198 -197 -355 0 -494 143 -368 379 88 165 146 181 660 181 l439 0 -14
-75 c-150 -769 -137 -785 634 -785 l454 0 12 75 c7 41 20 109 29 150 l17 75
-439 0 c-528 0 -484 -51 -400 459 35 215 63 398 63 406 0 27 -1181 14 -1284
-15z"/>
<path d="M2853 1767 c-7 -8 -13 -35 -13 -61 0 -27 -28 -216 -62 -422 -117
-716 -157 -690 1022 -680 l770 6 89 50 c247 139 294 458 88 594 -46 30 -113
38 -416 46 -358 10 -361 10 -368 56 -14 100 7 104 497 104 l454 0 13 115 c7
63 18 136 25 161 l13 46 -498 -6 c-652 -8 -799 -76 -822 -380 -19 -256 83
-316 536 -316 339 0 379 -8 379 -81 0 -96 -27 -99 -774 -99 -584 0 -705 5
-725 29 -21 25 57 587 112 806 11 45 -278 74 -320 32z"/>
<path d="M104 429 c-100 -71 -43 -209 87 -209 88 0 89 0 89 70 0 64 -5 70 -60
70 -33 0 -60 -9 -60 -20 0 -11 14 -20 30 -20 17 0 30 -14 30 -31 0 -40 -58
-31 -86 13 -35 56 -2 98 75 98 50 0 71 9 71 30 0 41 -117 40 -176 -1z"/>
<path d="M1140 364 c0 -110 25 -144 104 -144 67 0 75 34 11 44 -38 5 -46 20
-51 101 -9 135 -64 134 -64 -1z"/>
<path d="M1365 430 c-96 -68 -45 -210 76 -210 95 0 106 35 14 44 -84 8 -84 44
0 52 82 8 65 44 -20 44 -72 0 -53 33 25 43 28 4 48 16 46 27 -8 34 -93 33
-141 0z"/>
<path d="M1560 340 l0 -120 89 0 c68 0 95 9 110 39 54 100 -11 201 -129 201
l-70 0 0 -120z m150 19 c15 -45 -19 -99 -62 -99 -19 0 -28 24 -28 70 0 81 67
102 90 29z"/>
<path d="M1924 347 l6 -117 75 -6 c80 -7 106 29 30 40 -37 5 -47 22 -55 94
-16 141 -63 132 -56 -11z"/>
<path d="M2103 340 c-3 -95 3 -120 27 -120 23 0 30 26 30 120 0 88 -7 120 -27
120 -20 0 -29 -33 -30 -120z"/>
<path d="M2413 447 c-29 -29 -14 -227 17 -227 20 0 30 20 30 60 0 41 10 60 31
60 23 0 30 -15 25 -53 -3 -30 5 -57 19 -62 17 -6 25 17 25 73 0 70 -7 83 -50
94 -27 7 -50 25 -50 40 0 30 -24 37 -47 15z"/>
<path d="M2613 415 c-20 -82 14 -184 63 -191 24 -4 44 3 44 15 0 11 -9 21 -20
21 -26 0 -26 74 0 90 21 13 -32 110 -60 110 -9 0 -21 -20 -27 -45z"/>
<path d="M2755 446 c-20 -37 -4 -213 20 -221 18 -6 25 21 25 93 0 56 1 109 2
117 2 20 -37 30 -47 11z"/>
<path d="M3385 447 c-66 -27 -27 -126 55 -139 94 -15 87 -48 -11 -48 -38 0
-69 -9 -69 -20 0 -37 177 -23 198 16 28 53 -10 104 -79 104 -32 0 -59 9 -59
20 0 11 32 20 70 20 49 0 70 9 70 30 0 30 -115 41 -175 17z"/>
<path d="M3815 446 c-15 -29 9 -226 27 -226 10 0 19 41 21 90 2 50 4 101 5
113 2 28 -41 46 -53 23z"/>
<path d="M4115 409 c-17 -90 12 -178 61 -185 24 -4 44 3 44 15 0 11 -9 21 -20
21 -26 0 -26 75 0 83 27 9 -22 117 -53 117 -12 0 -27 -23 -32 -51z"/>
<path d="M4259 452 c-5 -5 -6 -59 -2 -120 9 -155 55 -152 51 2 -2 100 -21 146
-49 118z"/>
<path d="M320 311 c0 -71 7 -91 33 -91 25 0 29 13 20 61 -11 55 -8 60 29 48
33 -10 40 -5 35 24 -18 92 -117 57 -117 -42z"/>
<path d="M489 351 c-44 -67 -10 -131 72 -131 69 0 79 33 14 46 l-45 9 45 2
c25 2 45 11 45 22 0 10 -20 22 -45 27 l-45 9 45 2 c63 4 59 63 -5 63 -30 0
-61 -19 -81 -49z"/>
<path d="M670 360 c-54 -59 -14 -140 70 -140 75 0 79 34 5 46 l-55 8 55 3 c66
4 75 42 10 44 l-45 2 45 18 c25 10 45 27 45 38 0 36 -92 23 -130 -19z"/>
<path d="M840 310 c0 -49 9 -90 20 -90 11 0 20 27 20 60 0 40 10 60 30 60 20
0 30 -20 30 -60 0 -40 10 -60 30 -60 37 0 42 120 6 156 -64 64 -136 29 -136
-66z"/>
<path d="M2222 372 c-41 -49 -19 -138 38 -154 l50 -14 -55 -2 c-60 -2 -74 -36
-24 -55 80 -31 131 27 125 138 -6 113 -76 158 -134 87z m98 -72 c0 -22 -13
-40 -29 -40 -35 0 -58 33 -41 60 22 35 70 21 70 -20z"/>
<path d="M2853 387 c-28 -28 -14 -167 17 -167 20 0 30 20 30 60 0 40 10 60 30
60 20 0 30 -20 30 -60 0 -33 9 -60 20 -60 34 0 24 154 -12 168 -41 16 -98 15
-115 -1z"/>
<path d="M3073 375 c-50 -37 -36 -118 27 -149 49 -25 49 -25 5 -26 -28 0 -45
-12 -45 -32 0 -36 118 -21 145 20 73 107 -34 258 -132 187z m87 -75 c0 -22
-13 -40 -30 -40 -17 0 -30 18 -30 40 0 22 13 40 30 40 17 0 30 -18 30 -40z"/>
<path d="M3635 378 c-71 -41 -31 -158 55 -158 88 0 126 119 51 159 -47 26 -61
25 -106 -1z m85 -78 c0 -22 -13 -40 -30 -40 -17 0 -30 18 -30 40 0 22 13 40
30 40 17 0 30 -18 30 -40z"/>
<path d="M3913 387 c-16 -17 -17 -93 -1 -135 32 -84 148 -38 148 58 0 50 -9
90 -20 90 -11 0 -20 -31 -20 -70 0 -49 -9 -70 -30 -70 -21 0 -30 21 -30 70 0
66 -17 87 -47 57z"/>
<path d="M4371 369 c-60 -61 -25 -149 59 -149 88 0 126 119 51 159 -52 28 -73
26 -110 -10z m89 -69 c0 -22 -13 -40 -30 -40 -17 0 -30 18 -30 40 0 22 13 40
30 40 17 0 30 -18 30 -40z"/>
<path d="M4560 310 c0 -49 9 -90 20 -90 11 0 20 27 20 60 0 40 10 60 30 60 20
0 30 -20 30 -60 0 -40 10 -60 30 -60 35 0 41 83 9 141 -45 86 -139 51 -139
-51z"/>
<path d="M4762 363 c-23 -43 -2 -71 68 -89 31 -7 28 -10 -14 -12 -29 -1 -60
-12 -67 -23 -8 -14 16 -19 74 -15 102 7 130 79 37 94 l-50 8 46 12 c69 18 63
51 -10 58 -46 5 -69 -4 -84 -33z"/>
</g>
</svg>
