<?xml version="1.0" standalone="no"?>
<!DOCTYPE svg PUBLIC "-//W3C//DTD SVG 20010904//EN"
 "http://www.w3.org/TR/2001/REC-SVG-20010904/DTD/svg10.dtd">
<svg version="1.0" xmlns="http://www.w3.org/2000/svg"
 width="690.000000pt" height="690.000000pt" viewBox="0 0 690.000000 690.000000"
 preserveAspectRatio="xMidYMid meet">
<metadata>
Created by potrace 1.10, written by Peter Selinger 2001-2011
</metadata>
<g transform="translate(0.000000,690.000000) scale(0.100000,-0.100000)"
fill="#ffffff" stroke="none">
<path d="M4295 5710 c-22 -5 -69 -13 -104 -19 -35 -7 -72 -16 -82 -21 -10 -6
-28 -10 -41 -10 -13 0 -36 -7 -52 -15 -15 -8 -33 -15 -38 -15 -16 0 -143 -57
-283 -127 -274 -138 -606 -425 -828 -718 -34 -44 -64 -82 -67 -85 -7 -5 -46
-60 -111 -155 -19 -27 -37 -52 -40 -55 -12 -11 -79 -128 -79 -139 0 -6 -3 -11
-7 -11 -11 0 -76 -137 -71 -149 4 -13 416 -23 439 -11 9 5 22 24 29 42 60 162
197 451 268 568 12 19 33 55 47 80 141 252 434 541 647 639 140 64 150 66 328
66 173 0 175 0 290 -54 45 -21 180 -155 202 -201 73 -153 81 -198 82 -440 0
-251 -11 -324 -115 -740 -6 -25 -14 -54 -19 -65 -4 -11 -26 -74 -48 -140 -108
-324 -264 -689 -396 -921 -72 -128 -213 -319 -294 -397 l-49 -48 -68 83 c-253
308 -523 506 -860 631 -131 49 -157 53 -175 32 -13 -15 -12 -20 9 -36 13 -11
29 -19 37 -19 18 0 134 -55 199 -94 70 -42 187 -148 241 -217 86 -113 191
-298 413 -734 43 -82 89 -169 104 -192 15 -24 27 -45 27 -48 0 -8 44 -69 53
-73 4 -2 7 -9 7 -16 0 -25 146 -165 265 -254 30 -23 154 -102 158 -102 4 0 28
-13 54 -28 105 -61 260 -118 413 -151 52 -12 115 -26 139 -31 46 -11 162 -24
361 -40 127 -11 348 -3 368 13 6 5 12 18 12 28 0 18 -9 19 -119 19 -106 0
-325 27 -371 46 -8 4 -31 10 -50 14 -189 42 -411 179 -599 369 -122 123 -491
616 -491 656 0 14 26 39 82 80 151 109 453 421 573 590 17 23 38 53 48 66 10
13 40 58 67 99 27 41 56 84 65 95 8 10 15 23 15 27 0 5 14 27 30 50 17 22 30
47 30 55 0 7 4 13 8 13 4 0 15 15 23 33 9 17 39 75 66 128 28 53 64 132 82
175 18 44 36 88 40 99 15 34 38 107 56 175 20 77 40 151 60 223 34 122 40 185
40 422 0 300 -14 372 -102 546 -82 159 -177 255 -323 326 -109 52 -111 53
-165 63 -27 5 -70 14 -95 19 -52 12 -276 12 -335 1z"/>
<path d="M2323 5689 c-50 -12 -121 -72 -147 -125 -10 -22 -25 -51 -32 -66 -8
-15 -14 -57 -14 -101 0 -111 30 -157 130 -202 62 -28 161 -26 224 4 92 45 165
163 166 271 0 65 -48 180 -76 180 -6 0 -17 6 -23 14 -12 14 -117 37 -162 35
-13 -1 -43 -5 -66 -10z"/>
<path d="M1914 4922 c-12 -8 -127 -174 -170 -245 -16 -27 -37 -61 -46 -75 -10
-15 -21 -34 -25 -42 -4 -8 -23 -42 -43 -75 -31 -53 -170 -329 -205 -410 -38
-89 -75 -183 -81 -208 -3 -15 -10 -30 -15 -33 -5 -3 -9 -14 -9 -24 0 -11 -6
-34 -14 -52 -7 -18 -20 -58 -29 -88 -8 -30 -22 -80 -30 -110 -25 -90 -45 -197
-63 -330 -31 -235 1 -614 62 -732 8 -14 14 -31 14 -38 0 -21 88 -190 122 -233
56 -72 121 -138 177 -180 70 -52 215 -123 268 -132 24 -4 45 -11 49 -16 3 -5
22 -9 42 -9 20 0 75 -7 122 -15 109 -19 247 -19 347 0 43 8 93 15 111 15 18 0
43 5 55 12 12 6 38 15 57 19 54 11 96 28 217 87 116 57 173 95 173 118 0 7
-12 22 -26 33 -28 22 -64 20 -94 -4 -8 -6 -46 -26 -85 -45 -38 -18 -78 -36
-87 -41 -81 -40 -134 -49 -288 -49 -109 1 -167 5 -195 15 -22 8 -48 15 -58 15
-43 0 -164 77 -237 150 -92 93 -146 194 -181 340 -27 116 -27 535 1 630 7 25
12 59 11 76 -1 16 5 50 13 75 9 24 16 60 16 79 0 19 6 55 14 80 17 52 34 118
46 175 4 22 16 65 25 95 9 30 22 73 29 95 7 22 18 53 24 68 7 16 12 37 12 47
0 10 4 21 9 24 5 4 12 24 16 46 4 22 11 42 16 46 5 3 9 12 9 21 0 15 19 65 46
116 8 16 14 33 14 39 0 5 7 26 16 46 8 21 21 51 28 67 7 17 19 46 28 65 8 19
21 51 30 70 29 69 50 115 59 130 5 8 12 22 15 30 3 8 9 22 14 30 5 8 19 35 30
60 12 25 26 52 31 60 32 53 50 94 45 106 -4 11 -44 14 -213 14 -114 0 -213 -4
-219 -8z"/>
</g>
</svg>
