<?xml version="1.0" standalone="no"?>
<!DOCTYPE svg PUBLIC "-//W3C//DTD SVG 20010904//EN"
 "http://www.w3.org/TR/2001/REC-SVG-20010904/DTD/svg10.dtd">
<svg version="1.0" xmlns="http://www.w3.org/2000/svg"
 width="900.000000pt" height="900.000000pt" viewBox="0 0 900.000000 900.000000"
 preserveAspectRatio="xMidYMid meet">
<metadata>
Created by potrace 1.10, written by Peter Selinger 2001-2011
</metadata>
<g transform="translate(0.000000,900.000000) scale(0.100000,-0.100000)"
fill="#ffffff" stroke="none">
<path d="M5525 6860 c-33 -4 -90 -8 -127 -9 -37 -1 -93 -8 -125 -16 -31 -8
-73 -15 -91 -15 -19 0 -57 -7 -86 -16 -28 -9 -71 -22 -96 -30 -25 -8 -54 -14
-65 -14 -11 -1 -29 -7 -39 -15 -11 -8 -30 -15 -42 -15 -21 0 -34 -5 -112 -44
-19 -9 -39 -16 -45 -16 -12 0 -258 -121 -267 -131 -3 -3 -34 -23 -70 -44 -36
-21 -109 -73 -164 -114 -54 -42 -108 -83 -120 -91 -41 -29 -253 -246 -311
-320 -32 -41 -63 -76 -67 -78 -4 -2 -8 -8 -8 -14 0 -6 -13 -27 -30 -48 -16
-21 -30 -45 -30 -55 0 -29 88 -133 259 -304 199 -200 323 -311 348 -311 9 0
21 21 48 85 21 51 85 178 105 210 11 17 23 37 27 45 16 35 132 180 193 241
109 110 251 211 375 268 28 13 62 30 77 37 14 8 33 14 41 14 8 0 28 7 43 15
16 8 39 15 52 15 13 0 33 5 44 11 78 42 559 41 637 0 11 -6 27 -11 36 -11 35
0 219 -90 294 -145 31 -21 241 -237 241 -247 0 -5 11 -24 24 -41 14 -18 29
-43 35 -57 6 -14 15 -32 20 -40 5 -8 17 -33 26 -55 10 -22 24 -52 32 -67 7
-14 13 -33 13 -41 0 -8 7 -28 15 -43 8 -16 15 -39 15 -52 0 -13 5 -32 11 -43
6 -11 14 -50 19 -87 4 -37 13 -85 19 -107 14 -52 14 -585 0 -645 -6 -25 -14
-81 -19 -125 -4 -44 -13 -93 -18 -110 -6 -16 -13 -51 -17 -77 -3 -26 -10 -50
-16 -53 -5 -4 -9 -18 -9 -33 0 -15 -7 -40 -15 -56 -8 -15 -15 -36 -15 -45 0
-9 -7 -29 -15 -45 -8 -15 -15 -35 -15 -43 0 -8 -6 -27 -14 -41 -7 -15 -28 -58
-46 -97 -17 -38 -36 -77 -41 -85 -5 -8 -14 -24 -19 -35 -6 -11 -19 -33 -30
-50 -11 -16 -23 -37 -27 -45 -3 -8 -34 -51 -67 -95 -132 -175 -302 -318 -481
-404 -38 -19 -82 -40 -97 -47 -14 -8 -33 -14 -41 -14 -8 0 -28 -7 -43 -15 -16
-8 -39 -15 -52 -15 -13 0 -33 -5 -44 -11 -77 -42 -558 -42 -635 -1 -12 7 -31
12 -42 12 -19 0 -95 31 -191 78 -137 67 -341 278 -400 414 -6 13 -14 30 -19
38 -5 8 -16 31 -24 50 -8 19 -20 46 -26 60 -31 72 -45 123 -54 202 -6 48 -8
90 -5 93 3 3 45 13 94 21 152 27 224 42 431 89 204 47 429 109 447 124 6 5 22
11 36 14 34 7 98 32 106 40 4 4 -23 7 -59 7 -37 0 -102 6 -144 14 -73 14 -127
21 -326 46 -44 6 -87 15 -97 20 -10 6 -38 10 -62 10 -24 0 -61 5 -83 11 -22 6
-64 14 -93 19 -54 9 -113 21 -192 41 -25 6 -68 14 -97 19 -28 4 -56 11 -62 14
-5 4 -33 11 -63 16 -29 5 -62 14 -73 19 -21 9 -78 25 -155 43 -25 5 -49 14
-54 19 -6 5 -19 9 -30 9 -12 0 -34 7 -50 15 -15 8 -36 15 -45 15 -10 0 -26 7
-37 15 -10 8 -26 15 -35 15 -26 0 -230 94 -314 144 -53 31 -113 72 -143 96
-31 26 -36 27 -60 14 -15 -8 -36 -14 -47 -14 -11 0 -29 -7 -39 -15 -11 -8 -28
-15 -39 -15 -11 0 -42 -7 -71 -16 -126 -40 -142 -44 -157 -44 -9 0 -30 -7 -45
-15 -16 -8 -42 -15 -57 -15 -16 0 -38 -5 -49 -11 -11 -6 -44 -15 -72 -19 -55
-9 -117 -23 -207 -46 -30 -8 -72 -14 -92 -14 -19 0 -48 -5 -64 -11 -15 -6 -71
-15 -123 -20 -52 -5 -120 -13 -150 -18 -73 -13 -372 -12 -435 0 -27 5 -75 14
-105 19 -50 8 -114 27 -165 49 -21 9 -98 31 -109 31 -3 0 -6 -9 -6 -19 0 -45
203 -195 443 -327 103 -57 289 -145 397 -189 25 -10 59 -23 75 -31 37 -15 291
-99 365 -120 111 -32 105 -30 375 -85 57 -12 399 -39 492 -39 83 0 91 -12 133
-180 7 -25 16 -58 22 -75 6 -16 13 -43 16 -60 2 -16 11 -39 18 -50 8 -11 14
-29 14 -40 0 -11 7 -29 15 -39 8 -11 15 -27 15 -35 0 -9 14 -45 31 -81 17 -36
39 -81 48 -100 9 -19 22 -41 29 -48 6 -7 12 -18 12 -22 0 -11 114 -181 146
-220 103 -121 161 -184 206 -221 29 -24 55 -46 58 -50 12 -13 144 -107 202
-143 127 -79 335 -170 448 -196 19 -4 49 -13 65 -18 52 -19 145 -32 330 -48
150 -13 211 -13 365 -4 102 7 212 18 246 26 33 8 76 14 96 14 20 0 49 7 64 15
16 8 43 15 59 15 17 1 41 7 55 15 14 8 35 14 46 15 12 0 35 7 50 15 16 8 37
15 46 15 10 0 34 7 55 16 41 18 84 37 135 58 76 32 203 98 263 137 17 10 37
22 45 26 19 9 139 91 171 117 136 110 179 148 276 247 61 63 131 139 154 169
24 30 47 60 51 65 24 30 95 132 101 145 4 8 16 29 27 45 11 17 24 39 30 50 6
11 19 34 30 50 11 17 22 37 26 45 3 8 9 22 14 30 11 18 46 93 64 135 24 58 48
110 62 138 8 16 14 35 14 44 0 8 6 29 14 46 8 18 16 43 19 57 3 14 10 40 16
58 6 17 16 47 22 65 6 17 15 56 20 86 5 29 14 62 19 72 6 10 10 35 10 55 0 21
6 63 14 93 65 256 50 820 -30 1095 -8 26 -14 60 -14 75 0 14 -7 35 -15 45 -8
11 -15 31 -15 45 0 14 -7 35 -15 45 -8 11 -15 29 -15 40 0 12 -7 30 -15 40 -8
11 -15 30 -15 42 0 12 -7 27 -15 34 -8 7 -15 17 -15 23 0 12 -63 138 -91 182
-10 17 -22 36 -26 44 -3 8 -27 45 -52 82 -107 156 -242 295 -406 417 -38 28
-75 56 -82 62 -7 5 -17 10 -22 10 -5 0 -16 6 -23 13 -24 21 -131 77 -233 121
-16 7 -47 21 -68 30 -21 9 -45 16 -53 16 -9 0 -28 6 -42 14 -26 13 -90 32
-142 42 -14 2 -59 11 -100 19 -160 30 -419 42 -555 25z"/>
<path d="M1436 5988 c4 -28 13 -63 20 -77 8 -14 14 -33 14 -42 0 -9 7 -22 15
-29 8 -7 15 -18 15 -24 0 -13 61 -136 75 -152 6 -6 19 -28 30 -50 11 -21 25
-44 30 -50 6 -6 22 -32 37 -57 31 -52 76 -77 141 -77 22 0 63 -6 91 -14 142
-40 891 -57 1213 -27 l151 14 94 -94 c91 -94 169 -162 208 -183 32 -18 105
-70 108 -78 2 -5 9 -8 16 -8 7 0 32 -13 54 -30 23 -16 46 -30 51 -30 5 0 16
-6 23 -12 7 -7 33 -23 58 -36 25 -13 86 -45 135 -72 50 -27 97 -52 105 -55 8
-4 22 -11 30 -16 8 -5 22 -12 30 -15 8 -3 44 -19 80 -36 61 -28 79 -36 170
-75 19 -8 42 -19 50 -24 8 -5 22 -12 30 -15 8 -3 28 -12 43 -20 16 -7 33 -14
38 -14 6 0 31 -9 57 -21 26 -11 58 -25 72 -31 14 -5 39 -16 55 -24 17 -7 42
-16 58 -20 15 -3 30 -10 33 -15 3 -5 14 -9 24 -9 10 0 31 -6 47 -14 84 -41
102 -48 119 -44 18 5 18 5 -1 13 -11 5 -25 14 -32 19 -31 28 -43 36 -47 36 -3
0 -40 24 -81 53 -42 28 -84 57 -93 62 -9 6 -41 28 -72 51 -30 22 -72 50 -92
63 -21 12 -38 27 -38 32 0 5 -5 9 -10 9 -6 0 -39 21 -74 48 -35 26 -74 54 -86
62 -12 8 -28 20 -34 26 -6 6 -36 28 -66 49 -30 21 -57 41 -60 45 -3 4 -23 20
-46 36 -49 35 -196 148 -215 166 -8 7 -45 38 -84 69 -174 140 -405 379 -405
418 0 6 -8 19 -18 29 -16 16 -27 17 -73 11 -426 -59 -427 -59 -769 -59 -322 0
-368 3 -555 41 -27 5 -69 13 -92 18 -23 4 -48 12 -55 18 -7 6 -26 13 -43 16
-47 8 -125 38 -125 48 0 5 -8 9 -18 9 -10 0 -23 5 -29 11 -12 12 -43 31 -78
48 -11 5 -60 48 -109 95 -49 47 -97 86 -108 86 -17 0 -18 -5 -12 -52z"/>
<path d="M900 5385 c0 -4 20 -32 44 -63 45 -59 121 -134 215 -212 30 -25 68
-57 85 -72 17 -15 34 -28 37 -28 3 0 19 -11 35 -25 16 -14 67 -51 114 -83 47
-31 87 -59 90 -62 3 -3 14 -10 25 -17 114 -68 161 -97 165 -102 3 -3 20 -14
38 -23 38 -20 154 -24 213 -8 20 6 78 14 130 20 130 13 234 29 300 46 30 8 71
14 91 14 20 0 52 7 71 15 20 8 49 15 65 15 16 0 46 7 65 15 20 8 49 15 65 15
16 0 46 7 65 15 20 8 49 15 66 15 16 0 42 7 57 15 16 8 38 15 48 15 11 0 34 5
52 12 30 11 34 9 81 -30 27 -23 53 -42 57 -42 4 0 23 -12 41 -26 83 -63 390
-207 525 -246 19 -5 39 -14 44 -19 6 -5 19 -9 31 -9 12 0 30 -7 41 -15 10 -8
28 -14 39 -15 18 0 65 -13 150 -42 17 -5 50 -14 75 -19 24 -5 49 -14 54 -19 6
-6 25 -10 43 -10 18 0 50 -6 70 -14 40 -14 114 -31 199 -45 28 -5 61 -14 72
-20 11 -6 33 -11 47 -11 15 0 57 -6 94 -14 128 -28 177 -36 260 -46 46 -6 89
-14 95 -19 16 -12 189 -25 182 -12 -3 5 -20 12 -36 16 -16 4 -32 11 -35 16 -4
5 -17 9 -30 9 -13 0 -30 7 -39 15 -8 8 -21 15 -30 15 -8 0 -32 7 -53 16 -21 9
-54 23 -73 31 -19 8 -48 21 -63 29 -16 8 -36 14 -46 14 -9 0 -26 7 -37 15 -10
8 -25 15 -31 15 -7 0 -42 14 -76 30 -35 17 -70 30 -76 30 -7 0 -25 6 -39 13
-15 8 -42 21 -60 30 -19 9 -42 17 -52 17 -9 0 -23 7 -30 15 -7 8 -21 15 -32
15 -11 0 -32 6 -46 13 -15 8 -44 21 -65 30 -20 9 -54 24 -75 33 -20 8 -50 22
-65 30 -16 8 -37 14 -47 14 -9 0 -23 7 -30 15 -7 8 -19 15 -27 15 -8 0 -27 6
-41 13 -15 8 -44 21 -65 30 -86 37 -113 50 -127 58 -8 5 -22 12 -30 15 -45 16
-261 117 -290 135 -8 5 -22 12 -30 15 -8 3 -22 9 -30 14 -8 5 -39 21 -69 36
-69 33 -176 98 -222 135 -30 23 -47 29 -87 29 -28 0 -63 -5 -79 -11 -15 -6
-84 -14 -153 -19 -69 -5 -156 -14 -195 -19 -90 -13 -864 -13 -930 0 -27 5 -86
13 -130 18 -44 4 -89 12 -100 18 -11 6 -44 13 -74 16 -30 4 -59 11 -65 17 -5
5 -21 10 -34 10 -13 0 -40 7 -60 16 -21 8 -50 21 -67 28 -31 13 -105 50 -153
75 -15 8 -29 17 -32 21 -7 9 -80 23 -80 15z"/>
</g>
</svg>
